# xmcd CD database file
#
# Track frame offsets:
#	150
#	12155
#	23135
#	37790
#	45502
#
# Disc length: 808 seconds
#
# Revision: 6
# Processed by: cddbd v1.5PL3 Copyright (c) Steve Scherf et al.
# Submitted via: CDex 1.50beta9
#
DISCID=2a032605
DTITLE=BRAHMAN - Grope Our Way
DYEAR=1996
DGENRE=New Age
TTITLE0=ARTMAN
TTITLE1=Beyond The Mountain
TTITLE2=晴眼アルウチニ
TTITLE3=The Result Of The Next
TTITLE4=The SAME
EXTD=YEAR: 1996
EXTT0=
EXTT1=
EXTT2=
EXTT3=
EXTT4=
PLAYORDER=
